<svg width="90" height="60" viewBox="0 0 90 60" fill="none" xmlns="http://www.w3.org/2000/svg">
<g clip-path="url(#clip0)">
<path d="M70.9185 58.8067C70.1105 58.8067 69.4268 58.6824 68.7431 58.3716C66.3812 57.315 65.884 54.7667 65.8218 54.6424C65.7597 54.3316 65.9461 53.9587 66.3191 53.8965C66.6298 53.8344 67.0028 54.0208 67.0649 54.3937C67.0649 54.3937 67.5 56.4449 69.3025 57.1907C70.9185 57.9366 73.2182 57.4393 76.0774 55.7612C76.9475 55.2639 77.6934 54.7667 78.1906 54.2694C77.6312 53.2128 77.2583 52.094 77.2583 51.3482C77.2583 50.9752 77.3204 50.6645 77.5069 50.4158C77.6934 50.1051 78.0663 49.9186 78.4392 49.9186C79.558 49.9186 80.5525 50.6023 80.8011 51.5346C80.9876 52.2183 80.8633 53.2128 79.7445 54.4559C80.4282 55.4504 81.0497 55.8855 81.4227 55.8855C83.2873 55.8855 84.7169 54.3316 85.96 52.9642C87.0166 51.8454 87.8868 50.8509 89.0055 50.8509C89.3785 50.8509 89.6271 51.0995 89.6271 51.4725C89.6271 51.8454 89.3785 52.094 89.0055 52.094C88.5083 52.094 87.7003 52.9642 86.8923 53.8344C85.5249 55.3261 83.8467 57.1907 81.4227 57.1907C80.4903 57.1907 79.558 56.4449 78.8122 55.3882C78.2528 55.8855 77.5069 56.3205 76.6367 56.8799C74.4613 58.1852 72.5345 58.8067 70.9185 58.8067ZM78.5014 51.286C78.4392 51.5346 78.5635 52.4048 79.1229 53.4614C79.6202 52.8399 79.7445 52.3426 79.6202 52.0319C79.4959 51.5346 78.9365 51.286 78.5014 51.286Z" fill="#C7FFC7"/>
<path fill-rule="evenodd" clip-rule="evenodd" d="M65.7597 26.9835L65.076 27.4808L64.0815 27.1078L64.3301 26.7971L65.7597 26.9835Z" fill="#A2CAF6"/>
<path fill-rule="evenodd" clip-rule="evenodd" d="M58.3011 42.2114L57.5553 42.7708L56.5608 42.3357L56.8094 42.025L58.3011 42.2114Z" fill="#A2CAF6"/>
<path fill-rule="evenodd" clip-rule="evenodd" d="M61.7818 43.3302L61.0981 43.8896L60.1036 43.4545L60.3522 43.2059L61.7818 43.3302Z" fill="#A2CAF6"/>
<path fill-rule="evenodd" clip-rule="evenodd" d="M74.1506 34.0691L72.6588 33.2611L74.5856 33.3233L76.0774 34.1313L74.1506 34.0691Z" fill="#A2CAF6"/>
<path fill-rule="evenodd" clip-rule="evenodd" d="M63.6464 45.6921L62.2168 44.8841L64.0815 44.9462L65.5732 45.7542L63.6464 45.6921Z" fill="#A2CAF6"/>
<path fill-rule="evenodd" clip-rule="evenodd" d="M62.0926 48.489L61.2224 47.4324L62.9006 47.9297L63.8329 49.0484L62.0926 48.489Z" fill="#A2CAF6"/>
<path fill-rule="evenodd" clip-rule="evenodd" d="M57.5553 47.7432L58.5497 47.246L57.4931 48.6134L56.4986 49.1106L57.5553 47.7432Z" fill="#A2CAF6"/>
<path fill-rule="evenodd" clip-rule="evenodd" d="M73.9019 45.7542L74.8964 45.257L73.7776 46.6244L72.7831 47.0595L73.9019 45.7542Z" fill="#A2CAF6"/>
<path fill-rule="evenodd" clip-rule="evenodd" d="M54.0124 36.804L55.7528 37.4255L53.826 37.5498L52.1478 36.9904L54.0124 36.804Z" fill="#A2CAF6"/>
<path fill-rule="evenodd" clip-rule="evenodd" d="M57.4931 32.7639L56.8094 34.8772L54.4475 33.9448L55.1312 31.8937L57.4931 32.7639Z" fill="#A2CAF6"/>
<path fill-rule="evenodd" clip-rule="evenodd" d="M63.7086 33.3233L63.3356 35.3122L60.9738 34.7528L61.4088 32.7018L63.7086 33.3233Z" fill="#A2CAF6"/>
<path fill-rule="evenodd" clip-rule="evenodd" d="M69.1782 38.3578L68.8053 40.3468L66.4434 39.7874L66.8785 37.7363L69.1782 38.3578Z" fill="#A2CAF6"/>
<path fill-rule="evenodd" clip-rule="evenodd" d="M67.0028 50.0429L64.8895 50.7266L64.268 48.2404L66.3812 47.6189L67.0028 50.0429Z" fill="#A2CAF6"/>
<path fill-rule="evenodd" clip-rule="evenodd" d="M47.6727 32.8882L46.5539 34.1313L44.9379 34.2556L45.3729 32.2667L47.6727 32.8882Z" fill="#A2CAF6"/>
<path fill-rule="evenodd" clip-rule="evenodd" d="M72.4102 43.3924L71.7265 45.5056L69.3646 44.5733L70.0483 42.5222L72.4102 43.3924Z" fill="#A2CAF6"/>
<path fill-rule="evenodd" clip-rule="evenodd" d="M78.0663 42.7087L76.1395 43.5167L75.3315 41.2791L77.1961 40.4711L78.0663 42.7087Z" fill="#A2CAF6"/>
<path fill-rule="evenodd" clip-rule="evenodd" d="M56.4986 44.5733L54.634 45.3813L53.7638 43.0816L55.6906 42.2736L56.4986 44.5733Z" fill="#A2CAF6"/>
<path fill-rule="evenodd" clip-rule="evenodd" d="M50.8425 41.0305L52.2099 42.7087L49.5995 41.8385L48.2942 40.2225L50.8425 41.0305Z" fill="#A2CAF6"/>
<path fill-rule="evenodd" clip-rule="evenodd" d="M68.2459 46.873L69.3646 46.065L70.8564 46.6866L70.4834 47.1217L68.2459 46.873Z" fill="#A2CAF6"/>
<path fill-rule="evenodd" clip-rule="evenodd" d="M66.8785 49.7943L67.9351 48.9863L69.4268 49.6078L69.0539 50.0429L66.8785 49.7943Z" fill="#A2CAF6"/>
<path fill-rule="evenodd" clip-rule="evenodd" d="M76.6367 47.681L74.0262 48.1783L75.6423 46.8109L78.2528 46.3136L76.6367 47.681Z" fill="#A2CAF6"/>
<path fill-rule="evenodd" clip-rule="evenodd" d="M84.2196 36.4932L82.1064 36.5554L82.9144 35.2501L84.9655 35.1258L84.2196 36.4932Z" fill="#A2CAF6"/>
<path fill-rule="evenodd" clip-rule="evenodd" d="M63.46 41.217L64.0815 42.46L61.9061 42.1493L61.2845 40.9062L63.46 41.217Z" fill="#A2CAF6"/>
<path fill-rule="evenodd" clip-rule="evenodd" d="M72.9696 49.2971L73.5912 50.5402L71.4779 50.2294L70.8564 48.9863L72.9696 49.2971Z" fill="#A2CAF6"/>
<path fill-rule="evenodd" clip-rule="evenodd" d="M59.9793 49.9186L61.471 50.6645L59.5442 50.6023L58.0525 49.7943L59.9793 49.9186Z" fill="#A2CAF6"/>
<path fill-rule="evenodd" clip-rule="evenodd" d="M77.942 38.1714L76.0774 38.4821L77.1961 37.5498L79.0608 37.1769L77.942 38.1714Z" fill="#A2CAF6"/>
<path fill-rule="evenodd" clip-rule="evenodd" d="M66.7541 53.2128C49.3508 57.315 25.732 13.8689 59.1713 2.1838C92.6727 -9.56343 104.109 44.3868 66.7541 53.2128Z" fill="#ABFFAD"/>
<path fill-rule="evenodd" clip-rule="evenodd" d="M67.5622 3.30259C66.8785 3.92414 66.8785 4.7943 66.9406 5.60231C67.3757 10.8855 71.6644 15.7335 77.7555 17.9711C79.2472 18.5305 81.0497 18.9034 82.4793 18.1576C83.4116 17.6603 83.9088 16.728 83.971 15.8578C84.0331 14.9877 83.7224 14.1175 83.4116 13.3095C82.4171 10.8855 81.2362 8.52359 79.3094 6.53464C77.3826 4.54569 74.5856 2.92966 71.3536 2.49458C70.0483 2.37027 68.4945 2.49458 67.5622 3.30259Z" fill="#C7FFC7"/>
<path fill-rule="evenodd" clip-rule="evenodd" d="M83.5981 19.4628C82.4793 19.6493 81.9199 20.6437 81.7334 21.5139C81.547 22.4462 81.6713 23.5029 82.355 24.2487C83.0387 24.9946 84.4061 25.4297 85.587 25.0567C86.6436 24.746 87.2652 23.8136 87.3273 22.9435C87.3895 22.0733 86.8923 21.2653 86.2707 20.5816C85.7113 19.96 84.7169 19.2763 83.5981 19.4628Z" fill="#C7FFC7"/>
<path fill-rule="evenodd" clip-rule="evenodd" d="M70.3591 54.4559C70.1105 54.1451 69.4889 54.1451 69.0539 53.9587C68.5566 53.71 68.4945 53.275 68.308 52.8399C68.308 52.7777 68.1837 52.8399 66.0704 53.3371C64.9516 53.4614 64.6409 53.5236 63.9572 53.5236C63.9572 53.5857 63.9572 53.6479 63.9572 53.7722C64.0193 54.083 63.8329 54.3937 63.5221 54.5802L63.4599 54.6424C62.9005 54.891 62.8384 55.5747 63.3356 55.8233C63.7086 56.0098 64.2058 56.0719 64.6409 56.0719C66.0704 56.1962 67.5621 56.0719 68.9917 55.8233C69.4268 55.7612 69.8619 55.6368 70.1105 55.3882C70.4213 55.1396 70.6077 54.7045 70.3591 54.4559Z" fill="#69E781"/>
<path fill-rule="evenodd" clip-rule="evenodd" d="M86.5815 39.3523C87.3895 37.7984 61.5953 44.7598 57.3066 28.4752C56.8094 26.6727 55.3798 9.89098 62.7762 1.18932C62.7762 1.18932 52.4586 3.79982 46.4296 10.7611C41.6436 15.4849 40.2762 27.0457 45 37.9849C47.4862 43.5167 61.471 64.525 81.1119 46.1893C83.163 44.2625 84.4061 42.1493 86.5815 39.3523Z" fill="#8DF690"/>
<mask id="mask0" mask-type="alpha" maskUnits="userSpaceOnUse" x="0" y="1" width="32" height="55">
<path fill-rule="evenodd" clip-rule="evenodd" d="M18.895 1.18933C18.5843 1.18933 18.2735 1.31364 18.0249 1.5001L0.372928 18.9656C-0.0621551 19.4007 -0.0621551 20.2087 0.372928 20.7059C1.61602 23.0056 2.67265 23.9379 5.65608 26.5484L15.4765 18.6548C15.7873 18.344 16.3467 18.5926 16.4088 19.152L16.5331 54.2073C16.5331 54.7667 16.9682 55.2639 17.5898 55.2639C21.692 55.1396 25.9807 55.2018 29.7721 55.2639C30.3315 55.2639 30.518 54.8288 30.518 54.2073C30.3315 36.431 31.0152 19.4628 31.0152 1.18933C29.7721 1.12717 28.529 1.06502 27.2238 1.06502C24.6133 1.06502 21.8785 1.18933 18.895 1.18933Z" fill="white"/>
</mask>
<g mask="url(#mask0)">
<path fill-rule="evenodd" clip-rule="evenodd" d="M-3.23205 58.496H34.2472V-2.16702H-3.23205V58.496Z" fill="#ABFFAD"/>
</g>
<mask id="mask1" mask-type="alpha" maskUnits="userSpaceOnUse" x="16" y="16" width="6" height="40">
<path fill-rule="evenodd" clip-rule="evenodd" d="M16.0981 18.717C16.3467 18.8413 16.3467 19.0899 16.3467 19.152L16.471 54.1451C16.471 54.7045 16.9061 55.2018 17.5276 55.2018C18.7707 55.1396 20.0138 55.1396 21.2569 55.1396V17.7846C21.1948 17.2252 20.4489 16.9766 19.6409 16.9766C18.2113 16.9766 16.4088 17.5982 16.0981 18.717Z" fill="white"/>
</mask>
<g mask="url(#mask1)">
<path fill-rule="evenodd" clip-rule="evenodd" d="M12.8039 58.4338H24.489V13.7446H12.8039V58.4338Z" fill="#8DF690"/>
</g>
<mask id="mask2" mask-type="alpha" maskUnits="userSpaceOnUse" x="26" y="1" width="5" height="55">
<path fill-rule="evenodd" clip-rule="evenodd" d="M26.6644 55.0774C27.7832 55.0774 28.9019 55.1396 29.9586 55.1396C30.3937 55.1396 30.518 54.7045 30.518 54.083C30.3937 36.431 30.953 19.4007 30.953 1.12717C29.8964 1.06502 28.7776 1.00286 27.6588 1.00286C26.913 7.03187 26.4779 52.4048 26.6644 55.0774Z" fill="white"/>
</mask>
<g mask="url(#mask2)">
<path fill-rule="evenodd" clip-rule="evenodd" d="M23.3702 58.3716H34.2472V-2.29134H23.3702V58.3716Z" fill="#C7FFC7"/>
</g>
<mask id="mask3" mask-type="alpha" maskUnits="userSpaceOnUse" x="15" y="18" width="3" height="37">
<path fill-rule="evenodd" clip-rule="evenodd" d="M16.0359 19.2763C16.7818 24.9324 16.2224 30.6507 15.8494 36.3067C15.5387 42.1493 15.2901 47.9297 15.6008 53.6479C15.663 54.5181 16.9682 54.5181 16.9061 53.6479C16.5953 47.8053 16.8439 41.8385 17.1547 35.996C17.5276 30.3399 18.0249 24.6217 17.2169 18.9656C17.2169 18.6548 16.9682 18.4683 16.7196 18.4683C16.3467 18.4683 15.9116 18.7791 16.0359 19.2763Z" fill="white"/>
</mask>
<g mask="url(#mask3)">
<path fill-rule="evenodd" clip-rule="evenodd" d="M12.2445 57.5015H20.884V15.2363H12.2445V57.5015Z" fill="#69E781"/>
</g>
<mask id="mask4" mask-type="alpha" maskUnits="userSpaceOnUse" x="29" y="0" width="3" height="31">
<path fill-rule="evenodd" clip-rule="evenodd" d="M29.5235 1.74872C30.0829 2.7432 30.145 3.73767 30.0829 4.85646C30.0829 6.0374 30.0207 7.28049 29.9586 8.46143C29.9586 10.8855 29.8342 13.3095 29.7099 15.6714C29.5235 20.5816 29.3992 25.4918 29.2127 30.3399C29.2127 31.21 30.5179 31.21 30.5179 30.3399C30.7044 25.2432 30.8909 20.1465 31.0152 15.0498C31.0773 12.5015 31.2017 9.95314 31.2638 7.52911C31.3881 5.41585 31.6989 3.05397 30.5801 1.12718C30.4558 0.878559 30.2693 0.75425 30.0829 0.75425C29.7099 0.75425 29.2749 1.25149 29.5235 1.74872Z" fill="white"/>
</mask>
<g mask="url(#mask4)">
<path fill-rule="evenodd" clip-rule="evenodd" d="M25.9807 34.2556H34.6202V-2.47779H25.9807V34.2556Z" fill="#C7FFC7"/>
</g>
<mask id="mask5" mask-type="alpha" maskUnits="userSpaceOnUse" x="15" y="53" width="17" height="3">
<path fill-rule="evenodd" clip-rule="evenodd" d="M15.7873 54.1451C16.2224 55.0774 17.2169 55.5747 18.1492 55.699C19.4544 55.8233 20.884 55.699 22.1892 55.6368C24.924 55.5125 27.6588 55.3882 30.3937 55.1396C31.2638 55.0774 31.2638 53.71 30.3937 53.7722C27.9696 53.9587 25.6699 54.083 23.308 54.2073C22.1271 54.2694 20.9461 54.2694 19.7652 54.3316C18.8329 54.3316 17.4655 54.5181 16.9682 53.4614C16.8439 53.2128 16.6575 53.0885 16.471 53.0885C16.0359 53.0885 15.5387 53.6479 15.7873 54.1451Z" fill="white"/>
</mask>
<g mask="url(#mask5)">
<path fill-rule="evenodd" clip-rule="evenodd" d="M12.3066 59.1797H34.4337V49.7321H12.3066V59.1797Z" fill="#69E781"/>
</g>
</g>
<defs>
<clipPath id="clip0">
<rect width="90" height="59.6685" fill="white"/>
</clipPath>
</defs>
</svg>
